<?xml version="1.0" encoding="UTF-8"?><svg xmlns="http://www.w3.org/2000/svg" width="100%" height="100%"><g transform="translate(0, 450)"><text x="375" y="-540" text-anchor="middle">Comparison of Jon Stark and Daenerys Targaryen's Speeches throughout Season 8</text><line x1="20" x2="20" y1="0" y2="-450" stroke="black" stroke-width="1"/><line x1="20" x2="750" y1="0" y2="0" stroke="black" stroke-width="1"/><text x="5" y="0" text-anchor="middle">0</text><text x="5" y="-60" text-anchor="middle">10</text><text x="5" y="-120" text-anchor="middle">20</text><text x="5" y="-180" text-anchor="middle">30</text><text x="5" y="-240" text-anchor="middle">40</text><text x="5" y="-300" text-anchor="middle">50</text><text x="5" y="-360" text-anchor="middle">60</text><text x="5" y="-420" text-anchor="middle">70</text><circle cx="100" cy="-288" r="8" fill="#800000" stroke="black"/><circle cx="100" cy="-150" r="8" fill="#20B2AA" stroke="black"/><text x="75" y="-288">48</text><text x="75" y="-150">25</text><text x="100" y="20" text-anchor="middle">Ep. 1</text><line x1="100" y1="-288" x2="200" y2="-180" stroke="#800000" stroke-width="3"/><line x1="100" y1="-150" x2="200" y2="-276" stroke="#20B2AA" stroke-width="3"/><circle cx="200" cy="-180" r="8" fill="#800000" stroke="black"/><circle cx="200" cy="-276" r="8" fill="#20B2AA" stroke="black"/><text x="175" y="-180">30</text><text x="175" y="-276">46</text><text x="200" y="20" text-anchor="middle">Ep. 2</text><line x1="200" y1="-180" x2="300" y2="-24" stroke="#800000" stroke-width="3"/><line x1="200" y1="-276" x2="300" y2="-24" stroke="#20B2AA" stroke-width="3"/><circle cx="300" cy="-24" r="8" fill="#800000" stroke="black"/><circle cx="300" cy="-24" r="8" fill="#20B2AA" stroke="black"/><text x="275" y="-24">4</text><text x="275" y="-24">4</text><text x="300" y="20" text-anchor="middle">Ep. 3</text><line x1="300" y1="-24" x2="400" y2="-216" stroke="#800000" stroke-width="3"/><line x1="300" y1="-24" x2="400" y2="-204" stroke="#20B2AA" stroke-width="3"/><circle cx="400" cy="-216" r="8" fill="#800000" stroke="black"/><circle cx="400" cy="-204" r="8" fill="#20B2AA" stroke="black"/><text x="375" y="-216">36</text><text x="375" y="-204">34</text><text x="400" y="20" text-anchor="middle">Ep. 4</text><line x1="400" y1="-216" x2="500" y2="-108" stroke="#800000" stroke-width="3"/><line x1="400" y1="-204" x2="500" y2="-156" stroke="#20B2AA" stroke-width="3"/><circle cx="500" cy="-108" r="8" fill="#800000" stroke="black"/><circle cx="500" cy="-156" r="8" fill="#20B2AA" stroke="black"/><text x="475" y="-108">18</text><text x="475" y="-156">26</text><text x="500" y="20" text-anchor="middle">Ep. 5</text><line x1="500" y1="-108" x2="600" y2="-318" stroke="#800000" stroke-width="3"/><line x1="500" y1="-156" x2="600" y2="-132" stroke="#20B2AA" stroke-width="3"/><circle cx="600" cy="-318" r="8" fill="#800000" stroke="black"/><circle cx="600" cy="-132" r="8" fill="#20B2AA" stroke="black"/><text x="575" y="-318">53</text><text x="575" y="-132">22</text><text x="600" y="20" text-anchor="middle">Ep. 6</text><circle cx="800" cy="-205" r="8" fill="#800000" stroke="black"/><circle cx="800" cy="-245" r="8" fill="#20B2AA" stroke="black"/><text x="820" y="-205" text-anchor="start">= Jon's Speeches</text><text x="820" y="-245" text-anchor="start">= Daenerys's Speeches</text></g></svg>